{"title":"UEFA.Euro.2012.Sweden_vs_France.720p.1st.Half.mkv","uid":7378381,"size":1536686691,"categoryP":"video","categoryS":"hd___tv_shows","magnet":"?xt=urn:btih:ac7820c4c6170ef496d505be28de28baccad67ab&amp;dn=UEFA.Euro.2012.Sweden_vs_France.720p.1st.Half.mkv&amp;tr=udp%3A%2F%2Ftracker.openbittorrent.com%3A80&amp;tr=udp%3A%2F%2Fopen.demonii.com%3A1337&amp;tr=udp%3A%2F%2Ftracker.coppersurfer.tk%3A6969&amp;tr=udp%3A%2F%2Fexodus.desync.com%3A6969","seeders":0,"leechers":0,"uploader":"hirapanna","files":1,"time":1340431527,"description":"Video\nID                                       : 1\nFormat                                   : AVC\nFormat/Info                              : Advanced Video Codec\nFormat profile                           : &lt;a class=&quot;__cf_email__&quot; href=&quot;/cdn-cgi/l/email-protection&quot; data-cfemail=&quot;216c40484f616d150f11&quot;&gt;[email&amp;#160;protected]&lt;/a&gt;&lt;script cf-hash='f9e31' type=&quot;text/javascript&quot;&gt;\n/* &lt;![CDATA[ */!function(){try{var t=&quot;currentScript&quot;in document?document.currentScript:function(){for(var t=document.getElementsByTagName(&quot;script&quot;),e=t.length;e--;)if(t[e].getAttribute(&quot;cf-hash&quot;))return t[e]}();if(t&amp;&amp;t.previousSibling){var e,r,n,i,c=t.previousSibling,a=c.getAttribute(&quot;data-cfemail&quot;);if(a){for(e=&quot;&quot;,r=parseInt(a.substr(0,2),16),n=2;a.length-n;n+=2)i=parseInt(a.substr(n,2),16)^r,e+=String.fromCharCode(i);e=document.createTextNode(e),c.parentNode.replaceChild(e,c)}}}catch(u){}}();/* ]]&gt; */&lt;/script&gt;\nFormat settings, CABAC                   : Yes\nFormat settings, ReFrames                : 4 frames\nFormat settings, GOP                     : M=4, N=32\nCodec ID                                 : V_MPEG4/ISO/AVC\nDuration                                 : 46mn 41s\nBit rate mode                            : Variable\nBit rate                                 : 3 916 Kbps\nMaximum bit rate                         : 20.0 Mbps\nWidth                                    : 1 280 pixels\nHeight                                   : 720 pixels\nDisplay aspect ratio                     : 16:9\nFrame rate                               : 50.000 fps\nColor space                              : YUV\nChroma subsampling                       : 4:2:0\nBit depth                                : 8 bits\nScan type                                : Progressive\nBits/(Pixel*Frame)                       : 0.085\nStream size                              : 1.28 GiB (89%)\nDefault                                  : No\nForced                                   : No\nColor primaries                          : BT.709-5, BT.1361, IEC 61966-2-4, SMPTE RP177\nTransfer characteristics                 : BT.709-5, BT.1361\nMatrix coefficients                      : BT.709-5, BT.1361, IEC 61966-2-4 709, SMPTE RP177\n\nAudio\nID                                       : 2\nFormat                                   : AC-3\nFormat/Info                              : Audio Coding 3\nMode extension                           : CM (complete main)\nFormat settings, Endianness              : Big\nCodec ID                                 : A_AC3\nDuration                                 : 46mn 41s\nBit rate mode                            : Constant\nBit rate                                 : 384 Kbps\nChannel(s)                               : 2 channels\nChannel positions                        : Front: L R\nSampling rate                            : 48.0 KHz\nBit depth                                : 16 bits\nCompression mode                         : Lossy\nDelay relative to video                  : 4ms\nStream size                              : 128 MiB (9%)\nDefault                                  : No\nForced                                   : No\n\n","torrent":{"xt":"urn:btih:ac7820c4c6170ef496d505be28de28baccad67ab","amp;dn":"UEFA.Euro.2012.Sweden_vs_France.720p.1st.Half.mkv","amp;tr":["udp%3A%2F%2Ftracker.openbittorrent.com%3A80","udp%3A%2F%2Fopen.demonii.com%3A1337","udp%3A%2F%2Ftracker.coppersurfer.tk%3A6969","udp%3A%2F%2Fexodus.desync.com%3A6969"],"infoHash":"ac7820c4c6170ef496d505be28de28baccad67ab","infoHashBuffer":{"type":"Buffer","data":[172,120,32,196,198,23,14,244,150,213,5,190,40,222,40,186,204,173,103,171]},"announce":[],"urlList":[]}}